# xmcd
#
# Track frame offsets: 
#        150
#        16464
#        35080
#        50926
#        79222
#        93441
#        113334
#        128285
#        143453
#        172396
#
# Disc length: 2629 seconds
#
# Revision: 0
# Processed by: cddbd v1.5.2PL0 Copyright (c) Steve Scherf et al.
# Submitted via: ExactAudioCopy v1.3
#
DISCID=800a430a
DTITLE=Harmed Brothers - Better Days
DYEAR=2013
DGENRE=Country
TTITLE0=When You See Me
TTITLE1=Sky Cracked a Smile
TTITLE2=Carolina
TTITLE3=Under the Axe
TTITLE4=Never Went Away
TTITLE5=Better Days
TTITLE6=Ballad of Probably Not
TTITLE7=Love Song for the Assumed
TTITLE8=Caverns
TTITLE9=The Grove
EXTD=
EXTT0=
EXTT1=
EXTT2=
EXTT3=
EXTT4=
EXTT5=
EXTT6=
EXTT7=
EXTT8=
EXTT9=
PLAYORDER=
